<?xml version="1.0" standalone="no"?>
<!DOCTYPE svg /public "-//W3C//DTD SVG 20010904//EN"
 "http://www.w3.org/TR/2001/REC-SVG-20010904/DTD/svg10.dtd">
<svg version="1.0" xmlns="http://www.w3.org/2000/svg"
 width="150.000000pt" height="150.000000pt" viewBox="0 0 150.000000 150.000000"
 preserveAspectRatio="xMidYMid meet">
<metadata>
Created by potrace 1.14, written by Peter Selinger 2001-2017
</metadata>
<g transform="translate(0.000000,150.000000) scale(0.100000,-0.100000)"
fill="#000000" stroke="none">
<path d="M0 750 l0 -750 750 0 750 0 0 750 0 750 -750 0 -750 0 0 -750z m248
134 c85 -42 102 -110 35 -142 l-36 -17 6 -70 c3 -39 13 -87 22 -107 18 -36 15
-68 -5 -68 -22 0 -40 69 -40 150 0 44 -4 80 -9 80 -36 0 -59 -21 -69 -63 -14
-53 -38 -79 -49 -52 -3 10 -1 32 6 49 7 17 26 69 43 116 34 92 36 96 43 89 2
-3 -2 -32 -10 -64 -8 -33 -14 -63 -15 -67 0 -12 99 28 122 48 42 39 -2 89 -87
100 -52 7 -79 20 -69 35 10 17 60 9 112 -17z m833 -130 c-23 -58 -41 -118 -41
-134 0 -32 -14 -39 -28 -14 -8 14 -10 14 -21 0 -20 -24 -68 -20 -82 5 -16 30
3 89 42 134 24 27 39 35 66 35 23 0 33 -4 31 -12 -3 -7 -19 -13 -37 -13 -41 0
-81 -45 -81 -91 0 -54 42 -63 81 -18 24 29 89 196 89 230 0 31 15 40 18 10 2
-15 -15 -74 -37 -132z m-291 127 c0 -10 -7 -35 -15 -54 -8 -20 -15 -39 -15
-43 0 -3 7 -4 15 0 8 3 15 1 15 -4 0 -6 -8 -10 -19 -10 -22 0 -61 -93 -61
-146 0 -24 -5 -34 -15 -34 -21 0 -19 27 10 100 29 75 30 80 9 80 -8 0 -12 5
-9 10 3 6 14 10 24 10 20 0 31 26 31 78 0 22 5 32 15 32 8 0 15 -8 15 -19z
m110 -36 c0 -8 -4 -15 -10 -15 -5 0 -10 7 -10 15 0 8 5 15 10 15 6 0 10 -7 10
-15z m-424 -80 c23 -36 10 -97 -31 -140 -58 -62 -126 -39 -111 39 9 48 43 96
79 111 43 19 44 19 63 -10z m188 4 c17 -16 -4 -23 -34 -12 -22 8 -33 8 -46 -1
-15 -12 -13 -17 20 -53 40 -45 44 -67 19 -95 -20 -23 -85 -24 -107 -2 -25 24
-9 36 27 20 34 -14 77 -6 77 15 0 6 -14 30 -31 54 -45 62 -27 101 41 88 14 -2
29 -9 34 -14z m600 5 c46 -45 -17 -184 -83 -184 -42 0 -56 15 -55 59 2 50 38
109 78 127 40 17 42 17 60 -2z m-394 -9 c0 -9 -11 -43 -25 -77 -14 -34 -25
-72 -25 -85 0 -13 -4 -23 -10 -23 -17 0 -11 38 15 100 14 33 25 69 25 80 0 11
5 20 10 20 6 0 10 -7 10 -15z m500 -2 c0 -15 1 -15 18 0 22 20 66 23 60 5 -3
-7 -15 -15 -29 -16 -13 -2 -33 -11 -43 -20 -23 -21 -55 -89 -56 -119 0 -14 -6
-23 -15 -23 -20 0 -19 8 10 74 14 31 25 70 25 86 0 20 5 30 15 30 8 0 15 -7
15 -17z"/>
<path d="M387 742 c-55 -61 -35 -149 28 -120 45 20 72 97 43 126 -17 17 -52
15 -71 -6z"/>
<path d="M1178 743 c-8 -10 -20 -33 -27 -52 -9 -28 -8 -39 4 -58 9 -12 18 -23
21 -23 16 0 65 33 74 49 14 26 13 74 -2 89 -17 17 -53 15 -70 -5z"/>
</g>
</svg>
